# xmcd
#
# Track frame offsets:
# 150
# 11766
# 23923
# 36221
# 47141
# 58496
# 74802
# 84970
# 95910
# 107160
# 118495
# 130289
# 142699
# 154503
# 165572
# 179512
# 193226
# 205616
# 217972
# 230359
#
# Disc length: 3228 seconds
#
#
# Revision: 0
# Processed by: cddbd v1.5PL3 Copyright (c) Steve Scherf et al.
# Submitted via: FreeRIP 2.53 
#
DISCID=270c9a14
DTITLE=Price, Ray - The Essential Ray Price
DYEAR=1900
DGENRE=
TTITLE0=If Your Ever Lonely Darling
TTITLE1=The Road Of No Return
TTITLE2=Talk To Your Heart
TTITLE3=Move On In And stay
TTITLE4=I'll Be There
TTITLE5=Release Me
TTITLE6=I Can't Go Home Like This
TTITLE7=You Done Me Wrong
TTITLE8=Falling Falling Falling
TTITLE9=Wasted Words
TTITLE10=Crazy Arms
TTITLE11=I've Got A New Heartache
TTITLE12=My Shoes Keep Walking Back To You
TTITLE13=Invitation To The Blues
TTITLE14=City Lights
TTITLE15=Heartaches By The Number
TTITLE16=The Same Ole Me
TTITLE17=One More Time
TTITLE18=Heart Over Mind
TTITLE19=Pride
EXTD=
EXTT0=
EXTT1=
EXTT2=
EXTT3=
EXTT4=
EXTT5=
EXTT6=
EXTT7=
EXTT8=
EXTT9=
EXTT10=
EXTT11=
EXTT12=
EXTT13=
EXTT14=
EXTT15=
EXTT16=
EXTT17=
EXTT18=
EXTT19=
PLAYORDER=
